<mxfile host="app.diagrams.net" modified="2020-11-29T18:27:57.429Z" agent="5.0 (Windows NT 10.0; Win64; x64) AppleWebKit/537.36 (KHTML, like Gecko) Chrome/86.0.4240.198 Safari/537.36" etag="iX0hlnWnVm3ULpY-4opW" version="13.6.6" type="github">
  <diagram name="Page-1" id="c4acf3e9-155e-7222-9cf6-157b1a14988f">
    <mxGraphModel dx="1293" dy="722" grid="1" gridSize="10" guides="1" tooltips="1" connect="1" arrows="1" fold="1" page="1" pageScale="1" pageWidth="850" pageHeight="1100" background="#ffffff" math="0" shadow="0">
      <root>
        <mxCell id="0" />
        <mxCell id="1" parent="0" />
        <mxCell id="Uw8Q9OqU4BvzrxkrvStA-29" value="USUARIO" style="shape=table;startSize=30;container=1;collapsible=1;childLayout=tableLayout;fixedRows=1;rowLines=0;fontStyle=1;align=center;resizeLast=1;" vertex="1" parent="1">
          <mxGeometry x="80" y="65" width="190" height="130" as="geometry" />
        </mxCell>
        <mxCell id="Uw8Q9OqU4BvzrxkrvStA-30" value="" style="shape=partialRectangle;collapsible=0;dropTarget=0;pointerEvents=0;fillColor=none;top=0;left=0;bottom=1;right=0;points=[[0,0.5],[1,0.5]];portConstraint=eastwest;" vertex="1" parent="Uw8Q9OqU4BvzrxkrvStA-29">
          <mxGeometry y="30" width="190" height="30" as="geometry" />
        </mxCell>
        <mxCell id="Uw8Q9OqU4BvzrxkrvStA-31" value="PK" style="shape=partialRectangle;connectable=0;fillColor=none;top=0;left=0;bottom=0;right=0;fontStyle=1;overflow=hidden;" vertex="1" parent="Uw8Q9OqU4BvzrxkrvStA-30">
          <mxGeometry width="30" height="30" as="geometry" />
        </mxCell>
        <mxCell id="Uw8Q9OqU4BvzrxkrvStA-32" value="nro_usuario : INT" style="shape=partialRectangle;connectable=0;fillColor=none;top=0;left=0;bottom=0;right=0;align=left;spacingLeft=6;fontStyle=5;overflow=hidden;" vertex="1" parent="Uw8Q9OqU4BvzrxkrvStA-30">
          <mxGeometry x="30" width="160" height="30" as="geometry" />
        </mxCell>
        <mxCell id="Uw8Q9OqU4BvzrxkrvStA-33" value="" style="shape=partialRectangle;collapsible=0;dropTarget=0;pointerEvents=0;fillColor=none;top=0;left=0;bottom=0;right=0;points=[[0,0.5],[1,0.5]];portConstraint=eastwest;" vertex="1" parent="Uw8Q9OqU4BvzrxkrvStA-29">
          <mxGeometry y="60" width="190" height="30" as="geometry" />
        </mxCell>
        <mxCell id="Uw8Q9OqU4BvzrxkrvStA-34" value="" style="shape=partialRectangle;connectable=0;fillColor=none;top=0;left=0;bottom=0;right=0;editable=1;overflow=hidden;" vertex="1" parent="Uw8Q9OqU4BvzrxkrvStA-33">
          <mxGeometry width="30" height="30" as="geometry" />
        </mxCell>
        <mxCell id="Uw8Q9OqU4BvzrxkrvStA-35" value="username: VARCHAR(12)&#xa;" style="shape=partialRectangle;connectable=0;fillColor=none;top=0;left=0;bottom=0;right=0;align=left;spacingLeft=6;overflow=hidden;" vertex="1" parent="Uw8Q9OqU4BvzrxkrvStA-33">
          <mxGeometry x="30" width="160" height="30" as="geometry" />
        </mxCell>
        <mxCell id="Uw8Q9OqU4BvzrxkrvStA-36" value="" style="shape=partialRectangle;collapsible=0;dropTarget=0;pointerEvents=0;fillColor=none;top=0;left=0;bottom=0;right=0;points=[[0,0.5],[1,0.5]];portConstraint=eastwest;" vertex="1" parent="Uw8Q9OqU4BvzrxkrvStA-29">
          <mxGeometry y="90" width="190" height="30" as="geometry" />
        </mxCell>
        <mxCell id="Uw8Q9OqU4BvzrxkrvStA-37" value="" style="shape=partialRectangle;connectable=0;fillColor=none;top=0;left=0;bottom=0;right=0;editable=1;overflow=hidden;" vertex="1" parent="Uw8Q9OqU4BvzrxkrvStA-36">
          <mxGeometry width="30" height="30" as="geometry" />
        </mxCell>
        <mxCell id="Uw8Q9OqU4BvzrxkrvStA-38" value="password : VARCHAR(12)" style="shape=partialRectangle;connectable=0;fillColor=none;top=0;left=0;bottom=0;right=0;align=left;spacingLeft=6;overflow=hidden;" vertex="1" parent="Uw8Q9OqU4BvzrxkrvStA-36">
          <mxGeometry x="30" width="160" height="30" as="geometry" />
        </mxCell>
        <mxCell id="Uw8Q9OqU4BvzrxkrvStA-55" value="PRODUCTO" style="shape=table;startSize=30;container=1;collapsible=1;childLayout=tableLayout;fixedRows=1;rowLines=0;fontStyle=1;align=center;resizeLast=1;" vertex="1" parent="1">
          <mxGeometry x="630" y="65" width="180" height="247" as="geometry" />
        </mxCell>
        <mxCell id="Uw8Q9OqU4BvzrxkrvStA-56" value="" style="shape=partialRectangle;collapsible=0;dropTarget=0;pointerEvents=0;fillColor=none;top=0;left=0;bottom=1;right=0;points=[[0,0.5],[1,0.5]];portConstraint=eastwest;" vertex="1" parent="Uw8Q9OqU4BvzrxkrvStA-55">
          <mxGeometry y="30" width="180" height="30" as="geometry" />
        </mxCell>
        <mxCell id="Uw8Q9OqU4BvzrxkrvStA-57" value="PK" style="shape=partialRectangle;connectable=0;fillColor=none;top=0;left=0;bottom=0;right=0;fontStyle=1;overflow=hidden;" vertex="1" parent="Uw8Q9OqU4BvzrxkrvStA-56">
          <mxGeometry width="30" height="30" as="geometry" />
        </mxCell>
        <mxCell id="Uw8Q9OqU4BvzrxkrvStA-58" value="nro_producto : INT" style="shape=partialRectangle;connectable=0;fillColor=none;top=0;left=0;bottom=0;right=0;align=left;spacingLeft=6;fontStyle=5;overflow=hidden;" vertex="1" parent="Uw8Q9OqU4BvzrxkrvStA-56">
          <mxGeometry x="30" width="150" height="30" as="geometry" />
        </mxCell>
        <mxCell id="Uw8Q9OqU4BvzrxkrvStA-59" value="" style="shape=partialRectangle;collapsible=0;dropTarget=0;pointerEvents=0;fillColor=none;top=0;left=0;bottom=0;right=0;points=[[0,0.5],[1,0.5]];portConstraint=eastwest;" vertex="1" parent="Uw8Q9OqU4BvzrxkrvStA-55">
          <mxGeometry y="60" width="180" height="30" as="geometry" />
        </mxCell>
        <mxCell id="Uw8Q9OqU4BvzrxkrvStA-60" value="" style="shape=partialRectangle;connectable=0;fillColor=none;top=0;left=0;bottom=0;right=0;editable=1;overflow=hidden;" vertex="1" parent="Uw8Q9OqU4BvzrxkrvStA-59">
          <mxGeometry width="30" height="30" as="geometry" />
        </mxCell>
        <mxCell id="Uw8Q9OqU4BvzrxkrvStA-61" value="titulo : VARCHAR(45)" style="shape=partialRectangle;connectable=0;fillColor=none;top=0;left=0;bottom=0;right=0;align=left;spacingLeft=6;overflow=hidden;" vertex="1" parent="Uw8Q9OqU4BvzrxkrvStA-59">
          <mxGeometry x="30" width="150" height="30" as="geometry" />
        </mxCell>
        <mxCell id="Uw8Q9OqU4BvzrxkrvStA-62" value="" style="shape=partialRectangle;collapsible=0;dropTarget=0;pointerEvents=0;fillColor=none;top=0;left=0;bottom=0;right=0;points=[[0,0.5],[1,0.5]];portConstraint=eastwest;" vertex="1" parent="Uw8Q9OqU4BvzrxkrvStA-55">
          <mxGeometry y="90" width="180" height="30" as="geometry" />
        </mxCell>
        <mxCell id="Uw8Q9OqU4BvzrxkrvStA-63" value="" style="shape=partialRectangle;connectable=0;fillColor=none;top=0;left=0;bottom=0;right=0;editable=1;overflow=hidden;" vertex="1" parent="Uw8Q9OqU4BvzrxkrvStA-62">
          <mxGeometry width="30" height="30" as="geometry" />
        </mxCell>
        <mxCell id="Uw8Q9OqU4BvzrxkrvStA-64" value="sinopsis : VARCHAR(45)" style="shape=partialRectangle;connectable=0;fillColor=none;top=0;left=0;bottom=0;right=0;align=left;spacingLeft=6;overflow=hidden;" vertex="1" parent="Uw8Q9OqU4BvzrxkrvStA-62">
          <mxGeometry x="30" width="150" height="30" as="geometry" />
        </mxCell>
        <mxCell id="Uw8Q9OqU4BvzrxkrvStA-65" value="" style="shape=partialRectangle;collapsible=0;dropTarget=0;pointerEvents=0;fillColor=none;top=0;left=0;bottom=0;right=0;points=[[0,0.5],[1,0.5]];portConstraint=eastwest;" vertex="1" parent="Uw8Q9OqU4BvzrxkrvStA-55">
          <mxGeometry y="120" width="180" height="30" as="geometry" />
        </mxCell>
        <mxCell id="Uw8Q9OqU4BvzrxkrvStA-66" value="" style="shape=partialRectangle;connectable=0;fillColor=none;top=0;left=0;bottom=0;right=0;editable=1;overflow=hidden;" vertex="1" parent="Uw8Q9OqU4BvzrxkrvStA-65">
          <mxGeometry width="30" height="30" as="geometry" />
        </mxCell>
        <mxCell id="Uw8Q9OqU4BvzrxkrvStA-67" value="imagen : VARCHAR(45)" style="shape=partialRectangle;connectable=0;fillColor=none;top=0;left=0;bottom=0;right=0;align=left;spacingLeft=6;overflow=hidden;" vertex="1" parent="Uw8Q9OqU4BvzrxkrvStA-65">
          <mxGeometry x="30" width="150" height="30" as="geometry" />
        </mxCell>
        <mxCell id="Uw8Q9OqU4BvzrxkrvStA-69" value="" style="shape=partialRectangle;collapsible=0;dropTarget=0;pointerEvents=0;fillColor=none;top=0;left=0;bottom=0;right=0;points=[[0,0.5],[1,0.5]];portConstraint=eastwest;" vertex="1" parent="Uw8Q9OqU4BvzrxkrvStA-55">
          <mxGeometry y="150" width="180" height="30" as="geometry" />
        </mxCell>
        <mxCell id="Uw8Q9OqU4BvzrxkrvStA-70" value="" style="shape=partialRectangle;connectable=0;fillColor=none;top=0;left=0;bottom=0;right=0;editable=1;overflow=hidden;" vertex="1" parent="Uw8Q9OqU4BvzrxkrvStA-69">
          <mxGeometry width="30" height="30" as="geometry" />
        </mxCell>
        <mxCell id="Uw8Q9OqU4BvzrxkrvStA-71" value="precio : DOUBLE" style="shape=partialRectangle;connectable=0;fillColor=none;top=0;left=0;bottom=0;right=0;align=left;spacingLeft=6;overflow=hidden;" vertex="1" parent="Uw8Q9OqU4BvzrxkrvStA-69">
          <mxGeometry x="30" width="150" height="30" as="geometry" />
        </mxCell>
        <mxCell id="Uw8Q9OqU4BvzrxkrvStA-74" value="" style="shape=partialRectangle;collapsible=0;dropTarget=0;pointerEvents=0;fillColor=none;top=0;left=0;bottom=0;right=0;points=[[0,0.5],[1,0.5]];portConstraint=eastwest;" vertex="1" parent="Uw8Q9OqU4BvzrxkrvStA-55">
          <mxGeometry y="180" width="180" height="30" as="geometry" />
        </mxCell>
        <mxCell id="Uw8Q9OqU4BvzrxkrvStA-75" value="" style="shape=partialRectangle;connectable=0;fillColor=none;top=0;left=0;bottom=0;right=0;editable=1;overflow=hidden;" vertex="1" parent="Uw8Q9OqU4BvzrxkrvStA-74">
          <mxGeometry width="30" height="30" as="geometry" />
        </mxCell>
        <mxCell id="Uw8Q9OqU4BvzrxkrvStA-76" value="genero: VARCHAR(20)" style="shape=partialRectangle;connectable=0;fillColor=none;top=0;left=0;bottom=0;right=0;align=left;spacingLeft=6;overflow=hidden;" vertex="1" parent="Uw8Q9OqU4BvzrxkrvStA-74">
          <mxGeometry x="30" width="150" height="30" as="geometry" />
        </mxCell>
        <mxCell id="Uw8Q9OqU4BvzrxkrvStA-78" value="" style="shape=partialRectangle;collapsible=0;dropTarget=0;pointerEvents=0;fillColor=none;top=0;left=0;bottom=0;right=0;points=[[0,0.5],[1,0.5]];portConstraint=eastwest;" vertex="1" parent="Uw8Q9OqU4BvzrxkrvStA-55">
          <mxGeometry y="210" width="180" height="30" as="geometry" />
        </mxCell>
        <mxCell id="Uw8Q9OqU4BvzrxkrvStA-79" value="" style="shape=partialRectangle;connectable=0;fillColor=none;top=0;left=0;bottom=0;right=0;editable=1;overflow=hidden;" vertex="1" parent="Uw8Q9OqU4BvzrxkrvStA-78">
          <mxGeometry width="30" height="30" as="geometry" />
        </mxCell>
        <mxCell id="Uw8Q9OqU4BvzrxkrvStA-80" value="link: VARCHAR(45)" style="shape=partialRectangle;connectable=0;fillColor=none;top=0;left=0;bottom=0;right=0;align=left;spacingLeft=6;overflow=hidden;" vertex="1" parent="Uw8Q9OqU4BvzrxkrvStA-78">
          <mxGeometry x="30" width="150" height="30" as="geometry" />
        </mxCell>
        <mxCell id="Uw8Q9OqU4BvzrxkrvStA-42" value="BIBLIOTECA" style="shape=table;startSize=30;container=1;collapsible=1;childLayout=tableLayout;fixedRows=1;rowLines=0;fontStyle=1;align=center;resizeLast=1;" vertex="1" parent="1">
          <mxGeometry x="350" y="80" width="200" height="70" as="geometry" />
        </mxCell>
        <mxCell id="Uw8Q9OqU4BvzrxkrvStA-43" value="" style="shape=partialRectangle;collapsible=0;dropTarget=0;pointerEvents=0;fillColor=none;top=0;left=0;bottom=1;right=0;points=[[0,0.5],[1,0.5]];portConstraint=eastwest;" vertex="1" parent="Uw8Q9OqU4BvzrxkrvStA-42">
          <mxGeometry y="30" width="200" height="30" as="geometry" />
        </mxCell>
        <mxCell id="Uw8Q9OqU4BvzrxkrvStA-44" value="PK,FK" style="shape=partialRectangle;connectable=0;fillColor=none;top=0;left=0;bottom=0;right=0;fontStyle=1;overflow=hidden;" vertex="1" parent="Uw8Q9OqU4BvzrxkrvStA-43">
          <mxGeometry width="50" height="30" as="geometry" />
        </mxCell>
        <mxCell id="Uw8Q9OqU4BvzrxkrvStA-45" value="nro_usuario : INT&#xa;nro_producto : INT" style="shape=partialRectangle;connectable=0;fillColor=none;top=0;left=0;bottom=0;right=0;align=left;spacingLeft=6;fontStyle=5;overflow=hidden;" vertex="1" parent="Uw8Q9OqU4BvzrxkrvStA-43">
          <mxGeometry x="50" width="150" height="30" as="geometry" />
        </mxCell>
        <mxCell id="Uw8Q9OqU4BvzrxkrvStA-83" value="FACTURA" style="shape=table;startSize=30;container=1;collapsible=1;childLayout=tableLayout;fixedRows=1;rowLines=0;fontStyle=1;align=center;resizeLast=1;" vertex="1" parent="1">
          <mxGeometry x="90" y="325" width="180" height="190" as="geometry" />
        </mxCell>
        <mxCell id="Uw8Q9OqU4BvzrxkrvStA-84" value="" style="shape=partialRectangle;collapsible=0;dropTarget=0;pointerEvents=0;fillColor=none;top=0;left=0;bottom=1;right=0;points=[[0,0.5],[1,0.5]];portConstraint=eastwest;" vertex="1" parent="Uw8Q9OqU4BvzrxkrvStA-83">
          <mxGeometry y="30" width="180" height="30" as="geometry" />
        </mxCell>
        <mxCell id="Uw8Q9OqU4BvzrxkrvStA-85" value="PK" style="shape=partialRectangle;connectable=0;fillColor=none;top=0;left=0;bottom=0;right=0;fontStyle=1;overflow=hidden;" vertex="1" parent="Uw8Q9OqU4BvzrxkrvStA-84">
          <mxGeometry width="30" height="30" as="geometry" />
        </mxCell>
        <mxCell id="Uw8Q9OqU4BvzrxkrvStA-86" value="nro_factura : INT" style="shape=partialRectangle;connectable=0;fillColor=none;top=0;left=0;bottom=0;right=0;align=left;spacingLeft=6;fontStyle=5;overflow=hidden;" vertex="1" parent="Uw8Q9OqU4BvzrxkrvStA-84">
          <mxGeometry x="30" width="150" height="30" as="geometry" />
        </mxCell>
        <mxCell id="Uw8Q9OqU4BvzrxkrvStA-87" value="" style="shape=partialRectangle;collapsible=0;dropTarget=0;pointerEvents=0;fillColor=none;top=0;left=0;bottom=0;right=0;points=[[0,0.5],[1,0.5]];portConstraint=eastwest;" vertex="1" parent="Uw8Q9OqU4BvzrxkrvStA-83">
          <mxGeometry y="60" width="180" height="30" as="geometry" />
        </mxCell>
        <mxCell id="Uw8Q9OqU4BvzrxkrvStA-88" value="" style="shape=partialRectangle;connectable=0;fillColor=none;top=0;left=0;bottom=0;right=0;editable=1;overflow=hidden;" vertex="1" parent="Uw8Q9OqU4BvzrxkrvStA-87">
          <mxGeometry width="30" height="30" as="geometry" />
        </mxCell>
        <mxCell id="Uw8Q9OqU4BvzrxkrvStA-89" value="total_sin_iva : DOUBLE" style="shape=partialRectangle;connectable=0;fillColor=none;top=0;left=0;bottom=0;right=0;align=left;spacingLeft=6;overflow=hidden;" vertex="1" parent="Uw8Q9OqU4BvzrxkrvStA-87">
          <mxGeometry x="30" width="150" height="30" as="geometry" />
        </mxCell>
        <mxCell id="Uw8Q9OqU4BvzrxkrvStA-90" value="" style="shape=partialRectangle;collapsible=0;dropTarget=0;pointerEvents=0;fillColor=none;top=0;left=0;bottom=0;right=0;points=[[0,0.5],[1,0.5]];portConstraint=eastwest;" vertex="1" parent="Uw8Q9OqU4BvzrxkrvStA-83">
          <mxGeometry y="90" width="180" height="30" as="geometry" />
        </mxCell>
        <mxCell id="Uw8Q9OqU4BvzrxkrvStA-91" value="" style="shape=partialRectangle;connectable=0;fillColor=none;top=0;left=0;bottom=0;right=0;editable=1;overflow=hidden;" vertex="1" parent="Uw8Q9OqU4BvzrxkrvStA-90">
          <mxGeometry width="30" height="30" as="geometry" />
        </mxCell>
        <mxCell id="Uw8Q9OqU4BvzrxkrvStA-92" value="iva : DOUBLE" style="shape=partialRectangle;connectable=0;fillColor=none;top=0;left=0;bottom=0;right=0;align=left;spacingLeft=6;overflow=hidden;" vertex="1" parent="Uw8Q9OqU4BvzrxkrvStA-90">
          <mxGeometry x="30" width="150" height="30" as="geometry" />
        </mxCell>
        <mxCell id="Uw8Q9OqU4BvzrxkrvStA-93" value="" style="shape=partialRectangle;collapsible=0;dropTarget=0;pointerEvents=0;fillColor=none;top=0;left=0;bottom=0;right=0;points=[[0,0.5],[1,0.5]];portConstraint=eastwest;" vertex="1" parent="Uw8Q9OqU4BvzrxkrvStA-83">
          <mxGeometry y="120" width="180" height="30" as="geometry" />
        </mxCell>
        <mxCell id="Uw8Q9OqU4BvzrxkrvStA-94" value="" style="shape=partialRectangle;connectable=0;fillColor=none;top=0;left=0;bottom=0;right=0;editable=1;overflow=hidden;" vertex="1" parent="Uw8Q9OqU4BvzrxkrvStA-93">
          <mxGeometry width="30" height="30" as="geometry" />
        </mxCell>
        <mxCell id="Uw8Q9OqU4BvzrxkrvStA-95" value="total_con_iva : DOUBLE" style="shape=partialRectangle;connectable=0;fillColor=none;top=0;left=0;bottom=0;right=0;align=left;spacingLeft=6;overflow=hidden;" vertex="1" parent="Uw8Q9OqU4BvzrxkrvStA-93">
          <mxGeometry x="30" width="150" height="30" as="geometry" />
        </mxCell>
        <mxCell id="Uw8Q9OqU4BvzrxkrvStA-110" value="" style="shape=partialRectangle;collapsible=0;dropTarget=0;pointerEvents=0;fillColor=none;top=0;left=0;bottom=0;right=0;points=[[0,0.5],[1,0.5]];portConstraint=eastwest;" vertex="1" parent="Uw8Q9OqU4BvzrxkrvStA-83">
          <mxGeometry y="150" width="180" height="30" as="geometry" />
        </mxCell>
        <mxCell id="Uw8Q9OqU4BvzrxkrvStA-111" value="FK" style="shape=partialRectangle;connectable=0;fillColor=none;top=0;left=0;bottom=0;right=0;fontStyle=0;overflow=hidden;" vertex="1" parent="Uw8Q9OqU4BvzrxkrvStA-110">
          <mxGeometry width="30" height="30" as="geometry" />
        </mxCell>
        <mxCell id="Uw8Q9OqU4BvzrxkrvStA-112" value="nro_usuario : INT" style="shape=partialRectangle;connectable=0;fillColor=none;top=0;left=0;bottom=0;right=0;align=left;spacingLeft=6;fontStyle=0;overflow=hidden;" vertex="1" parent="Uw8Q9OqU4BvzrxkrvStA-110">
          <mxGeometry x="30" width="150" height="30" as="geometry" />
        </mxCell>
        <mxCell id="Uw8Q9OqU4BvzrxkrvStA-96" value="DETALLE_FACTURA" style="shape=table;startSize=30;container=1;collapsible=1;childLayout=tableLayout;fixedRows=1;rowLines=0;fontStyle=1;align=center;resizeLast=1;" vertex="1" parent="1">
          <mxGeometry x="390" y="400" width="180" height="100" as="geometry" />
        </mxCell>
        <mxCell id="Uw8Q9OqU4BvzrxkrvStA-97" value="" style="shape=partialRectangle;collapsible=0;dropTarget=0;pointerEvents=0;fillColor=none;top=0;left=0;bottom=1;right=0;points=[[0,0.5],[1,0.5]];portConstraint=eastwest;" vertex="1" parent="Uw8Q9OqU4BvzrxkrvStA-96">
          <mxGeometry y="30" width="180" height="30" as="geometry" />
        </mxCell>
        <mxCell id="Uw8Q9OqU4BvzrxkrvStA-98" value="PK" style="shape=partialRectangle;connectable=0;fillColor=none;top=0;left=0;bottom=0;right=0;fontStyle=1;overflow=hidden;" vertex="1" parent="Uw8Q9OqU4BvzrxkrvStA-97">
          <mxGeometry width="30" height="30" as="geometry" />
        </mxCell>
        <mxCell id="Uw8Q9OqU4BvzrxkrvStA-99" value="nro_factura : INT (FK)&#xa;nro_item : INT" style="shape=partialRectangle;connectable=0;fillColor=none;top=0;left=0;bottom=0;right=0;align=left;spacingLeft=6;fontStyle=5;overflow=hidden;" vertex="1" parent="Uw8Q9OqU4BvzrxkrvStA-97">
          <mxGeometry x="30" width="150" height="30" as="geometry" />
        </mxCell>
        <mxCell id="Uw8Q9OqU4BvzrxkrvStA-100" value="" style="shape=partialRectangle;collapsible=0;dropTarget=0;pointerEvents=0;fillColor=none;top=0;left=0;bottom=0;right=0;points=[[0,0.5],[1,0.5]];portConstraint=eastwest;" vertex="1" parent="Uw8Q9OqU4BvzrxkrvStA-96">
          <mxGeometry y="60" width="180" height="30" as="geometry" />
        </mxCell>
        <mxCell id="Uw8Q9OqU4BvzrxkrvStA-101" value="FK" style="shape=partialRectangle;connectable=0;fillColor=none;top=0;left=0;bottom=0;right=0;editable=1;overflow=hidden;" vertex="1" parent="Uw8Q9OqU4BvzrxkrvStA-100">
          <mxGeometry width="30" height="30" as="geometry" />
        </mxCell>
        <mxCell id="Uw8Q9OqU4BvzrxkrvStA-102" value="nro_producto: INT" style="shape=partialRectangle;connectable=0;fillColor=none;top=0;left=0;bottom=0;right=0;align=left;spacingLeft=6;overflow=hidden;" vertex="1" parent="Uw8Q9OqU4BvzrxkrvStA-100">
          <mxGeometry x="30" width="150" height="30" as="geometry" />
        </mxCell>
        <mxCell id="Uw8Q9OqU4BvzrxkrvStA-117" value="" style="edgeStyle=orthogonalEdgeStyle;fontSize=12;html=1;endArrow=ERoneToMany;startArrow=ERzeroToOne;exitX=0.25;exitY=1;exitDx=0;exitDy=0;entryX=0.75;entryY=0;entryDx=0;entryDy=0;" edge="1" parent="1" source="Uw8Q9OqU4BvzrxkrvStA-29" target="Uw8Q9OqU4BvzrxkrvStA-83">
          <mxGeometry width="100" height="100" relative="1" as="geometry">
            <mxPoint x="400" y="320" as="sourcePoint" />
            <mxPoint x="500" y="220" as="targetPoint" />
          </mxGeometry>
        </mxCell>
        <mxCell id="Uw8Q9OqU4BvzrxkrvStA-118" value="" style="edgeStyle=entityRelationEdgeStyle;fontSize=12;html=1;endArrow=ERoneToMany;startArrow=ERzeroToOne;exitX=1;exitY=0.5;exitDx=0;exitDy=0;entryX=0;entryY=0.5;entryDx=0;entryDy=0;" edge="1" parent="1" source="Uw8Q9OqU4BvzrxkrvStA-33" target="Uw8Q9OqU4BvzrxkrvStA-43">
          <mxGeometry width="100" height="100" relative="1" as="geometry">
            <mxPoint x="400" y="320" as="sourcePoint" />
            <mxPoint x="500" y="220" as="targetPoint" />
          </mxGeometry>
        </mxCell>
        <mxCell id="Uw8Q9OqU4BvzrxkrvStA-119" value="" style="edgeStyle=orthogonalEdgeStyle;fontSize=12;html=1;endArrow=ERoneToMany;startArrow=ERzeroToOne;entryX=1;entryY=0.5;entryDx=0;entryDy=0;exitX=0;exitY=0.5;exitDx=0;exitDy=0;" edge="1" parent="1" source="Uw8Q9OqU4BvzrxkrvStA-65" target="Uw8Q9OqU4BvzrxkrvStA-43">
          <mxGeometry width="100" height="100" relative="1" as="geometry">
            <mxPoint x="560" y="300" as="sourcePoint" />
            <mxPoint x="550" y="200" as="targetPoint" />
          </mxGeometry>
        </mxCell>
        <mxCell id="Uw8Q9OqU4BvzrxkrvStA-120" value="" style="edgeStyle=orthogonalEdgeStyle;fontSize=12;html=1;endArrow=ERzeroToMany;startArrow=ERmandOne;exitX=1;exitY=0.5;exitDx=0;exitDy=0;entryX=0;entryY=0.5;entryDx=0;entryDy=0;" edge="1" parent="1" source="Uw8Q9OqU4BvzrxkrvStA-90" target="Uw8Q9OqU4BvzrxkrvStA-100">
          <mxGeometry width="100" height="100" relative="1" as="geometry">
            <mxPoint x="400" y="320" as="sourcePoint" />
            <mxPoint x="500" y="220" as="targetPoint" />
          </mxGeometry>
        </mxCell>
        <mxCell id="Uw8Q9OqU4BvzrxkrvStA-121" value="" style="edgeStyle=orthogonalEdgeStyle;fontSize=12;html=1;endArrow=ERzeroToMany;startArrow=ERzeroToOne;exitX=0.5;exitY=1;exitDx=0;exitDy=0;entryX=1;entryY=0.5;entryDx=0;entryDy=0;" edge="1" parent="1" source="Uw8Q9OqU4BvzrxkrvStA-55" target="Uw8Q9OqU4BvzrxkrvStA-100">
          <mxGeometry width="100" height="100" relative="1" as="geometry">
            <mxPoint x="400" y="320" as="sourcePoint" />
            <mxPoint x="500" y="220" as="targetPoint" />
          </mxGeometry>
        </mxCell>
      </root>
    </mxGraphModel>
  </diagram>
</mxfile>
